# Blender v2.79 (sub 0) OBJ File: ''
# www.blender.org
mtllib board.mtl
o Cube
v 5.012990 -0.474903 -2.608151
v 5.012990 -0.474903 2.608151
v -5.012991 -0.474903 2.608150
v -5.012989 -0.474903 -2.608152
v 5.012993 0.474903 -2.608150
v 5.012987 0.474903 2.608153
v -5.012992 0.474903 2.608150
v -5.012990 0.474903 -2.608151
v 4.440234 0.474903 -2.250631
v 4.440229 0.474903 2.250633
v -4.440232 0.474903 -2.250632
v -4.440234 0.474903 2.250631
v 4.440234 -0.278645 -2.250631
v 4.440229 -0.278645 2.250633
v -4.440232 -0.278645 -2.250632
v -4.440234 -0.278645 2.250631
vn 0.0000 -1.0000 0.0000
vn 0.0000 1.0000 -0.0000
vn 1.0000 -0.0000 0.0000
vn -0.0000 -0.0000 1.0000
vn -1.0000 -0.0000 -0.0000
vn 0.0000 0.0000 -1.0000
usemtl Material
s off
f 2//1 4//1 1//1
f 6//2 12//2 7//2
f 5//3 2//3 1//3
f 6//4 3//4 2//4
f 3//5 8//5 4//5
f 1//6 8//6 5//6
f 10//6 16//6 12//6
f 5//2 10//2 6//2
f 7//2 11//2 8//2
f 8//2 9//2 5//2
f 15//2 14//2 13//2
f 9//5 14//5 10//5
f 12//3 15//3 11//3
f 11//4 13//4 9//4
f 2//1 3//1 4//1
f 6//2 10//2 12//2
f 5//3 6//3 2//3
f 6//4 7//4 3//4
f 3//5 7//5 8//5
f 1//6 4//6 8//6
f 10//6 14//6 16//6
f 5//2 9//2 10//2
f 7//2 12//2 11//2
f 8//2 11//2 9//2
f 15//2 16//2 14//2
f 9//5 13//5 14//5
f 12//3 16//3 15//3
f 11//4 15//4 13//4
