# Blender v2.79 (sub 0) OBJ File: 'map.blend'
# www.blender.org
mtllib map.mtl
o Cube.017_Cube.018
v 1.141693 0.290126 5.944910
v 1.141693 1.730005 5.944910
v 1.141693 0.290126 5.504362
v 1.141693 1.730005 5.504362
v 5.907943 0.290126 5.944910
v 5.907943 1.730005 5.944910
v 5.907943 0.290126 5.504362
v 5.907943 1.730005 5.504362
vt 0.333361 0.000084
vt 0.666639 0.999916
vt 0.333417 1.000084
vt 3.361310 0.000084
vt -2.361310 0.999916
vt 3.360353 1.000084
vt 0.345053 0.000084
vt 0.654947 0.999916
vt 0.345105 1.000084
vt -0.851152 0.000084
vt 1.851152 0.999916
vt -0.850700 1.000084
vt -0.000084 0.000084
vt 1.000084 0.999916
vt 0.000084 1.000084
vt -0.000084 0.000084
vt 1.000084 0.999916
vt 0.000084 1.000084
vt 0.666583 -0.000084
vt -2.360353 -0.000084
vt 0.654895 -0.000084
vt 1.850700 -0.000084
vt 0.999916 -0.000084
vt 0.999916 -0.000084
vn -1.0000 0.0000 0.0000
vn 0.0000 0.0000 -1.0000
vn 1.0000 0.0000 0.0000
vn 0.0000 0.0000 1.0000
vn 0.0000 -1.0000 0.0000
vn 0.0000 1.0000 0.0000
usemtl None
s off
f 2/1/1 3/2/1 1/3/1
f 4/4/2 7/5/2 3/6/2
f 8/7/3 5/8/3 7/9/3
f 6/10/4 1/11/4 5/12/4
f 7/13/5 1/14/5 3/15/5
f 4/16/6 6/17/6 8/18/6
f 2/1/1 4/19/1 3/2/1
f 4/4/2 8/20/2 7/5/2
f 8/7/3 6/21/3 5/8/3
f 6/10/4 2/22/4 1/11/4
f 7/13/5 5/23/5 1/14/5
f 4/16/6 2/24/6 6/17/6
o Cube.016_Cube.017
v -5.967506 0.290126 6.005354
v -5.967506 1.730005 6.005354
v -5.967506 0.290126 5.564806
v -5.967506 1.730005 5.564806
v -1.201257 0.290126 6.005354
v -1.201257 1.730005 6.005354
v -1.201257 0.290126 5.564806
v -1.201257 1.730005 5.564806
vt 0.337677 -0.000292
vt 0.662323 1.000292
vt 0.337487 0.999708
vt -1.188239 -0.000292
vt 2.188239 1.000292
vt -1.190213 0.999708
vt 0.346246 -0.000292
vt 0.653754 1.000292
vt 0.346066 0.999708
vt -0.515869 -0.000292
vt 1.515869 1.000292
vt -0.517057 0.999708
vt 0.000292 -0.000292
vt 0.999708 1.000292
vt -0.000292 0.999708
vt 0.000292 -0.000292
vt 0.999708 1.000292
vt -0.000292 0.999708
vt 0.662513 0.000292
vt 2.190213 0.000292
vt 0.653934 0.000292
vt 1.517057 0.000292
vt 1.000292 0.000292
vt 1.000292 0.000292
vn -1.0000 0.0000 0.0000
vn 0.0000 0.0000 -1.0000
vn 1.0000 0.0000 0.0000
vn 0.0000 0.0000 1.0000
vn 0.0000 -1.0000 0.0000
vn 0.0000 1.0000 0.0000
usemtl None
s off
f 10/25/7 11/26/7 9/27/7
f 12/28/8 15/29/8 11/30/8
f 16/31/9 13/32/9 15/33/9
f 14/34/10 9/35/10 13/36/10
f 15/37/11 9/38/11 11/39/11
f 12/40/12 14/41/12 16/42/12
f 10/25/7 12/43/7 11/26/7
f 12/28/8 16/44/8 15/29/8
f 16/31/9 14/45/9 13/32/9
f 14/34/10 10/46/10 9/35/10
f 15/37/11 13/47/11 9/38/11
f 12/40/12 10/48/12 14/41/12
o Cube.015_Cube.016
v -5.965693 0.290126 -5.723806
v -5.965693 1.730005 -5.723806
v -5.965693 0.290126 -6.164354
v -5.965693 1.730005 -6.164354
v -1.199444 0.290126 -5.723806
v -1.199444 1.730005 -5.723806
v -1.199444 0.290126 -6.164354
v -1.199444 1.730005 -6.164354
vt 1.000000 0.000000
vt 0.000000 1.000000
vt 0.000000 0.000000
vt -0.504689 -0.000060
vt 1.504689 1.000060
vt -0.504931 0.999940
vt 0.340021 -0.000315
vt 0.659979 1.000315
vt 0.339819 0.999685
vt -0.731979 0.000431
vt 1.731979 0.999569
vt -0.729859 1.000430
vt 1.000000 0.000000
vt 0.000000 1.000000
vt 0.000000 0.000000
vt 1.000000 0.000000
vt 0.000000 1.000000
vt 0.000000 0.000000
vt 1.000000 1.000000
vt 1.504931 0.000060
vt 0.660181 0.000315
vt 1.729859 -0.000430
vt 1.000000 1.000000
vt 1.000000 1.000000
vn -1.0000 0.0000 0.0000
vn 0.0000 0.0000 -1.0000
vn 1.0000 0.0000 0.0000
vn 0.0000 0.0000 1.0000
vn 0.0000 -1.0000 0.0000
vn 0.0000 1.0000 0.0000
usemtl None
s off
f 18/49/13 19/50/13 17/51/13
f 20/52/14 23/53/14 19/54/14
f 24/55/15 21/56/15 23/57/15
f 22/58/16 17/59/16 21/60/16
f 23/61/17 17/62/17 19/63/17
f 20/64/18 22/65/18 24/66/18
f 18/49/13 20/67/13 19/50/13
f 20/52/14 24/68/14 23/53/14
f 24/55/15 22/69/15 21/56/15
f 22/58/16 18/70/16 17/59/16
f 23/61/17 21/71/17 17/62/17
f 20/64/18 18/72/18 22/65/18
o Cube.014_Cube.015
v 1.141693 0.290126 -5.723806
v 1.141693 1.730005 -5.723806
v 1.141693 0.290126 -6.164354
v 1.141693 1.730005 -6.164354
v 5.907943 0.290126 -5.723806
v 5.907943 1.730005 -5.723806
v 5.907943 0.290126 -6.164354
v 5.907943 1.730005 -6.164354
vt 0.685304 1.147992
vt 0.337376 -0.083437
vt 0.685304 -0.083437
vt -0.754949 1.060369
vt 1.744609 -0.054873
vt -0.754949 -0.054873
vt 0.453582 1.266877
vt 0.667304 -0.138342
vt 0.453582 -0.138342
vt -0.724477 -0.308784
vt 1.669618 1.373339
vt -0.724477 1.373339
vt 1.760959 0.837808
vt 0.355740 -0.567412
vt 0.355740 0.837808
vt -1.049480 0.837808
vt 0.355740 -0.567412
vt 0.355740 0.837808
vt 0.337376 1.147992
vt 1.744609 1.060369
vt 0.667304 1.266877
vt 1.669618 -0.308784
vt 1.760959 -0.567412
vt -1.049480 -0.567412
vn -1.0000 0.0000 0.0000
vn 0.0000 0.0000 -1.0000
vn 1.0000 0.0000 0.0000
vn 0.0000 0.0000 1.0000
vn 0.0000 -1.0000 0.0000
vn 0.0000 1.0000 0.0000
usemtl None
s off
f 26/73/19 27/74/19 25/75/19
f 28/76/20 31/77/20 27/78/20
f 32/79/21 29/80/21 31/81/21
f 30/82/22 25/83/22 29/84/22
f 31/85/23 25/86/23 27/87/23
f 28/88/24 30/89/24 32/90/24
f 26/73/19 28/91/19 27/74/19
f 28/76/20 32/92/20 31/77/20
f 32/79/21 30/93/21 29/80/21
f 30/82/22 26/94/22 25/83/22
f 31/85/23 29/95/23 25/86/23
f 28/88/24 26/96/24 30/89/24
o Cube.013_Cube.014
v 5.497567 0.290126 -1.117560
v 5.497567 1.730005 -1.117560
v 5.497567 0.290126 -5.939150
v 5.497567 1.730005 -5.939150
v 5.907010 0.290126 -1.117560
v 5.907010 1.730005 -1.117560
v 5.907010 0.290126 -5.939150
v 5.907010 1.730005 -5.939150
vt -0.700119 -0.000119
vt 1.700119 1.000119
vt -0.700689 0.999881
vt 1.000000 0.000000
vt 0.000000 1.000000
vt 0.000000 0.000000
vt -0.619833 -0.000355
vt 1.619833 1.000355
vt -0.621425 0.999645
vt 0.357773 -0.000421
vt 0.642227 1.000421
vt 0.357533 0.999578
vt 1.000000 0.000000
vt 0.000000 1.000000
vt 0.000000 1.000000
vt 0.000000 0.000000
vt 1.700690 0.000119
vt 1.000000 1.000000
vt 1.621425 0.000355
vt 0.642467 0.000422
vt 1.000000 1.000000
vt 1.000000 1.000000
vn -1.0000 0.0000 0.0000
vn 0.0000 0.0000 -1.0000
vn 1.0000 0.0000 0.0000
vn 0.0000 0.0000 1.0000
vn 0.0000 -1.0000 0.0000
vn 0.0000 1.0000 0.0000
usemtl None
s off
f 34/97/25 35/98/25 33/99/25
f 36/100/26 39/101/26 35/102/26
f 40/103/27 37/104/27 39/105/27
f 38/106/28 33/107/28 37/108/28
f 39/109/29 33/110/29 35/102/29
f 36/100/30 38/111/30 40/112/30
f 34/97/25 36/113/25 35/98/25
f 36/100/26 40/114/26 39/101/26
f 40/103/27 38/115/27 37/104/27
f 38/106/28 34/116/28 33/107/28
f 39/109/29 37/117/29 33/110/29
f 36/100/30 34/118/30 38/111/30
o Cube.005_Cube.013
v 5.468526 0.290126 5.943313
v 5.468526 1.730005 5.943313
v 5.468526 0.290126 1.121722
v 5.468526 1.730005 1.121722
v 5.877969 0.290126 5.943313
v 5.877969 1.730005 5.943313
v 5.877969 0.290126 1.121722
v 5.877969 1.730005 1.121722
vt -0.842271 0.000375
vt 1.842271 0.999625
vt -0.840261 1.000374
vt 0.332573 0.000375
vt 0.667427 0.999625
vt 0.332824 1.000374
vt -0.842139 0.000375
vt 1.842139 0.999625
vt -0.840129 1.000374
vt -0.000374 0.000375
vt 1.000374 0.999625
vt 0.000375 1.000374
vt -0.000374 0.000375
vt 0.000375 1.000374
vt -0.000374 0.000375
vt 1.000374 0.999625
vt 0.000375 1.000374
vt 1.840261 -0.000374
vt 0.667176 -0.000374
vt 1.840129 -0.000374
vt 0.999625 -0.000374
vt 0.999625 -0.000374
vn -1.0000 0.0000 0.0000
vn 0.0000 0.0000 -1.0000
vn 1.0000 0.0000 0.0000
vn 0.0000 0.0000 1.0000
vn 0.0000 -1.0000 0.0000
vn 0.0000 1.0000 0.0000
usemtl None
s off
f 42/119/31 43/120/31 41/121/31
f 44/122/32 47/123/32 43/124/32
f 48/125/33 45/126/33 47/127/33
f 46/128/34 41/129/34 45/130/34
f 47/131/35 41/129/35 43/132/35
f 44/133/36 46/134/36 48/135/36
f 42/119/31 44/136/31 43/120/31
f 44/122/32 48/137/32 47/123/32
f 48/125/33 46/138/33 45/126/33
f 46/128/34 42/139/34 41/129/34
f 47/131/35 45/140/35 41/129/35
f 44/133/36 42/139/36 46/134/36
o Cube.012
v -5.965538 0.290126 -1.117560
v -5.965538 1.730005 -1.117560
v -5.965538 0.290126 -5.939150
v -5.965538 1.730005 -5.939150
v -5.556095 0.290126 -1.117560
v -5.556095 1.730005 -1.117560
v -5.556095 0.290126 -5.939150
v -5.556095 1.730005 -5.939150
vt -0.661339 0.000240
vt 1.661339 0.999761
vt -0.660227 1.000239
vt 1.000000 0.000000
vt 0.000000 1.000000
vt 0.000000 0.000000
vt -0.552422 -0.033056
vt 1.552422 1.033056
vt -0.552229 1.033154
vt 0.371339 -0.000223
vt 0.628661 1.000223
vt 0.371224 0.999777
vt 1.000000 0.000000
vt 0.000000 1.000000
vt 0.000000 1.000000
vt 0.000000 0.000000
vt 1.660227 -0.000239
vt 1.000000 1.000000
vt 1.552229 -0.033154
vt 0.628776 0.000223
vt 1.000000 1.000000
vt 1.000000 1.000000
vn -1.0000 0.0000 0.0000
vn 0.0000 0.0000 -1.0000
vn 1.0000 0.0000 0.0000
vn 0.0000 0.0000 1.0000
vn 0.0000 -1.0000 0.0000
vn 0.0000 1.0000 0.0000
usemtl None
s off
f 50/141/37 51/142/37 49/143/37
f 52/144/38 55/145/38 51/146/38
f 56/147/39 53/148/39 55/149/39
f 54/150/40 49/151/40 53/152/40
f 55/153/41 49/154/41 51/146/41
f 52/144/42 54/155/42 56/156/42
f 50/141/37 52/157/37 51/142/37
f 52/144/38 56/158/38 55/145/38
f 56/147/39 54/159/39 53/148/39
f 54/150/40 50/160/40 49/151/40
f 55/153/41 53/161/41 49/154/41
f 52/144/42 50/162/42 54/155/42
o Cube.011
v 1.791214 0.290126 2.896027
v 1.791214 1.730005 2.896027
v 1.791214 0.290126 2.455480
v 1.791214 1.730005 2.455480
v 3.185088 0.290126 2.896027
v 3.185088 1.730005 2.896027
v 3.185088 0.290126 2.455480
v 3.185088 1.730005 2.455480
vt 0.349962 -0.000420
vt 0.650038 1.000420
vt 0.349710 0.999580
vt 0.000420 -0.000420
vt 0.999580 1.000420
vt -0.000420 0.999580
vt 0.343793 -0.000420
vt 0.656207 1.000420
vt 0.343531 0.999580
vt 0.000420 -0.000420
vt 0.999580 1.000420
vt -0.000420 0.999580
vt 0.000420 -0.000420
vt 0.999580 1.000420
vt -0.000420 0.999580
vt 0.650290 0.000420
vt 1.000420 0.000420
vt 0.656469 0.000420
vt 1.000420 0.000420
vt 1.000420 0.000420
vn -1.0000 0.0000 0.0000
vn 0.0000 0.0000 -1.0000
vn 1.0000 0.0000 0.0000
vn 0.0000 0.0000 1.0000
vn 0.0000 -1.0000 0.0000
vn 0.0000 1.0000 0.0000
usemtl None
s off
f 58/163/43 59/164/43 57/165/43
f 60/166/44 63/167/44 59/168/44
f 64/169/45 61/170/45 63/171/45
f 62/172/46 57/173/46 61/174/46
f 63/175/47 57/173/47 59/168/47
f 60/166/48 62/176/48 64/177/48
f 58/163/43 60/178/43 59/164/43
f 60/166/44 64/179/44 63/167/44
f 64/169/45 62/180/45 61/170/45
f 62/172/46 58/181/46 57/173/46
f 63/175/47 61/182/47 57/173/47
f 60/166/48 58/181/48 62/176/48
o Cube.010
v 1.877491 0.290126 -2.751708
v 1.877491 1.730005 -2.751708
v 1.877491 0.290126 -3.192255
v 1.877491 1.730005 -3.192255
v 3.185088 0.290126 -2.751706
v 3.185088 1.730005 -2.751706
v 3.185088 0.290126 -3.192253
v 3.185088 1.730005 -3.192253
vt 0.345025 -0.000073
vt 0.654975 1.000073
vt 0.344979 0.999927
vt 0.000073 -0.000073
vt 0.999927 1.000073
vt -0.000073 0.999927
vt 0.354911 -0.000073
vt 0.645089 1.000073
vt 0.354868 0.999927
vt 0.000073 -0.000073
vt 0.999927 1.000073
vt -0.000073 0.999927
vt 0.000073 -0.000073
vt -0.000073 0.999927
vt 1.000073 0.000073
vt 0.999927 1.000073
vt 0.655021 0.000073
vt 1.000073 0.000073
vt 0.645132 0.000073
vt 1.000073 0.000073
vn -1.0000 0.0000 0.0000
vn 0.0000 0.0000 -1.0000
vn 1.0000 0.0000 0.0000
vn -0.0000 0.0000 1.0000
vn 0.0000 -1.0000 0.0000
vn 0.0000 1.0000 0.0000
usemtl None
s off
f 66/183/49 67/184/49 65/185/49
f 68/186/50 71/187/50 67/188/50
f 72/189/51 69/190/51 71/191/51
f 70/192/52 65/193/52 69/194/52
f 71/195/53 65/193/53 67/188/53
f 72/196/54 66/197/54 70/198/54
f 66/183/49 68/199/49 67/184/49
f 68/186/50 72/200/50 71/187/50
f 72/189/51 70/201/51 69/190/51
f 70/192/52 66/197/52 65/193/52
f 71/195/53 69/202/53 65/193/53
f 72/196/54 68/186/54 66/197/54
o Cube.009
v -3.066807 0.290126 -2.738338
v -3.066807 1.730005 -2.738338
v -3.066807 0.290126 -3.178885
v -3.066807 1.730005 -3.178885
v -1.672933 0.290126 -2.738338
v -1.672933 1.730005 -2.738338
v -1.672933 0.290126 -3.178885
v -1.672933 1.730005 -3.178885
vt 0.332474 -0.000001
vt 0.667526 1.000001
vt 0.332473 0.999999
vt 0.000001 -0.000001
vt 0.999999 1.000001
vt -0.000001 0.999999
vt 0.318730 -0.000001
vt 0.681270 1.000001
vt 0.318729 0.999999
vt 0.000001 -0.000001
vt 0.999999 1.000001
vt -0.000001 0.999999
vt 0.000001 -0.000001
vt 0.999999 1.000001
vt -0.000001 0.999999
vt 0.667527 0.000001
vt 1.000001 0.000001
vt 0.681271 0.000001
vt 1.000001 0.000001
vt 1.000001 0.000001
vn -1.0000 0.0000 0.0000
vn 0.0000 0.0000 -1.0000
vn 1.0000 0.0000 0.0000
vn 0.0000 0.0000 1.0000
vn 0.0000 -1.0000 0.0000
vn 0.0000 1.0000 0.0000
usemtl None
s off
f 74/203/55 75/204/55 73/205/55
f 76/206/56 79/207/56 75/208/56
f 80/209/57 77/210/57 79/211/57
f 78/212/58 73/213/58 77/214/58
f 79/215/59 73/213/59 75/208/59
f 76/206/60 78/216/60 80/217/60
f 74/203/55 76/218/55 75/204/55
f 76/206/56 80/219/56 79/207/56
f 80/209/57 78/220/57 77/210/57
f 78/212/58 74/221/58 73/213/58
f 79/215/59 77/222/59 73/213/59
f 76/206/60 74/221/60 78/216/60
o Cube.008
v -3.066807 0.290126 2.873863
v -3.066807 1.730005 2.873863
v -3.066807 0.290126 2.433316
v -3.066807 1.730005 2.433316
v -1.672933 0.290126 2.873863
v -1.672933 1.730005 2.873863
v -1.672933 0.290126 2.433316
v -1.672933 1.730005 2.433316
vt 0.328363 -0.000462
vt 0.671637 1.000462
vt 0.328045 0.999537
vt 0.000463 -0.000462
vt 0.999537 1.000462
vt -0.000462 0.999537
vt 0.343240 -0.000462
vt 0.656760 1.000462
vt 0.342950 0.999537
vt 0.000463 -0.000462
vt 0.999537 1.000462
vt -0.000462 0.999537
vt 0.000463 -0.000462
vt 0.999537 1.000462
vt -0.000462 0.999537
vt 0.671955 0.000463
vt 1.000462 0.000463
vt 0.657050 0.000463
vt 1.000462 0.000463
vt 1.000462 0.000463
vn -1.0000 0.0000 0.0000
vn 0.0000 0.0000 -1.0000
vn 1.0000 0.0000 0.0000
vn 0.0000 0.0000 1.0000
vn 0.0000 -1.0000 0.0000
vn 0.0000 1.0000 0.0000
usemtl None
s off
f 82/223/61 83/224/61 81/225/61
f 84/226/62 87/227/62 83/228/62
f 88/229/63 85/230/63 87/231/63
f 86/232/64 81/233/64 85/234/64
f 87/235/65 81/233/65 83/228/65
f 84/226/66 86/236/66 88/237/66
f 82/223/61 84/238/61 83/224/61
f 84/226/62 88/239/62 87/227/62
f 88/229/63 86/240/63 85/230/63
f 86/232/64 82/241/64 81/233/64
f 87/235/65 85/242/65 81/233/65
f 84/226/66 82/241/66 86/236/66
o Cube.007
v -3.075080 0.290126 2.599093
v -3.075080 1.730005 2.599093
v -3.075080 0.290126 -2.840647
v -3.075080 1.730005 -2.840647
v -2.665637 0.290126 2.599093
v -2.665637 1.730005 2.599093
v -2.665637 0.290126 -2.840647
v -2.665637 1.730005 -2.840647
vt -0.588625 0.000056
vt 1.588625 0.999944
vt -0.588381 1.000056
vt -0.000056 0.000056
vt 1.000056 0.999944
vt 0.000056 1.000056
vt -1.009511 0.000056
vt 2.009511 0.999944
vt -1.009173 1.000056
vt -0.000056 0.000056
vt 1.000056 0.999944
vt 0.000056 1.000056
vt -0.000056 0.000056
vt 1.000056 0.999944
vt 0.000056 1.000056
vt 1.588381 -0.000056
vt 0.999944 -0.000056
vt 2.009172 -0.000056
vt 0.999944 -0.000056
vt 0.999944 -0.000056
vn -1.0000 0.0000 0.0000
vn 0.0000 0.0000 -1.0000
vn 1.0000 0.0000 0.0000
vn 0.0000 0.0000 1.0000
vn 0.0000 -1.0000 0.0000
vn 0.0000 1.0000 0.0000
usemtl None
s off
f 90/243/67 91/244/67 89/245/67
f 92/246/68 95/247/68 91/248/68
f 96/249/69 93/250/69 95/251/69
f 94/252/70 89/253/70 93/254/70
f 95/255/71 89/253/71 91/248/71
f 92/246/72 94/256/72 96/257/72
f 90/243/67 92/258/67 91/244/67
f 92/246/68 96/259/68 95/247/68
f 96/249/69 94/260/69 93/250/69
f 94/252/70 90/261/70 89/253/70
f 95/255/71 93/262/71 89/253/71
f 92/246/72 90/261/72 94/256/72
o Cube.006
v 2.763339 0.290126 2.726947
v 2.763339 1.730005 2.726947
v 2.763339 0.290126 -2.968501
v 2.763339 1.730005 -2.968501
v 3.172782 0.290126 2.726947
v 3.172782 1.730005 2.726947
v 3.172782 0.290126 -2.968501
v 3.172782 1.730005 -2.968501
vt -0.853286 0.000424
vt 1.853286 0.999576
vt -0.850994 1.000423
vt -0.000423 0.000424
vt 1.000423 0.999576
vt 0.000424 1.000423
vt -0.935692 0.000424
vt 1.935692 0.999576
vt -0.933261 1.000423
vt -0.000423 0.000424
vt 1.000423 0.999576
vt 0.000424 1.000423
vt -0.000423 0.000424
vt 1.000423 0.999576
vt 0.000424 1.000423
vt 1.850994 -0.000423
vt 0.999576 -0.000423
vt 1.933261 -0.000423
vt 0.999576 -0.000423
vt 0.999576 -0.000423
vn -1.0000 0.0000 0.0000
vn 0.0000 0.0000 -1.0000
vn 1.0000 0.0000 0.0000
vn 0.0000 0.0000 1.0000
vn 0.0000 -1.0000 0.0000
vn 0.0000 1.0000 0.0000
usemtl None
s off
f 98/263/73 99/264/73 97/265/73
f 100/266/74 103/267/74 99/268/74
f 104/269/75 101/270/75 103/271/75
f 102/272/76 97/273/76 101/274/76
f 103/275/77 97/273/77 99/268/77
f 100/266/78 102/276/78 104/277/78
f 98/263/73 100/278/73 99/264/73
f 100/266/74 104/279/74 103/267/74
f 104/269/75 102/280/75 101/270/75
f 102/272/76 98/281/76 97/273/76
f 103/275/77 101/282/77 97/273/77
f 100/266/78 98/281/78 102/276/78
o Cube.004
v -5.965538 0.290126 5.943313
v -5.965538 1.730005 5.943313
v -5.965538 0.290126 1.121722
v -5.965538 1.730005 1.121722
v -5.556095 0.290126 5.943313
v -5.556095 1.730005 5.943313
v -5.556095 0.290126 1.121722
v -5.556095 1.730005 1.121722
vt -0.518401 0.000187
vt 1.518401 0.999813
vt -0.517639 1.000187
vt 0.327910 0.000410
vt 0.672090 0.999590
vt 0.328192 1.000410
vt -1.045805 0.000246
vt 2.045805 0.999754
vt -1.044283 1.000246
vt 1.000000 0.000000
vt 0.000000 1.000000
vt 0.000000 0.000000
vt 1.000000 0.000000
vt 0.000000 0.000000
vt 1.000000 0.000000
vt 0.000000 1.000000
vt 0.000000 0.000000
vt 1.517639 -0.000187
vt 0.671808 -0.000410
vt 2.044283 -0.000246
vt 1.000000 1.000000
vt 1.000000 1.000000
vn -1.0000 0.0000 0.0000
vn 0.0000 0.0000 -1.0000
vn 1.0000 0.0000 0.0000
vn 0.0000 0.0000 1.0000
vn 0.0000 -1.0000 0.0000
vn 0.0000 1.0000 0.0000
usemtl None
s off
f 106/283/79 107/284/79 105/285/79
f 108/286/80 111/287/80 107/288/80
f 112/289/81 109/290/81 111/291/81
f 110/292/82 105/293/82 109/294/82
f 111/295/83 105/293/83 107/296/83
f 108/297/84 110/298/84 112/299/84
f 106/283/79 108/300/79 107/284/79
f 108/286/80 112/301/80 111/287/80
f 112/289/81 110/302/81 109/290/81
f 110/292/82 106/303/82 105/293/82
f 111/295/83 109/304/83 105/293/83
f 108/297/84 106/303/84 110/298/84
o Cube.003
v 8.701016 0.022110 7.960276
v 8.513234 0.022110 8.289496
v -8.703283 0.022110 8.289496
v -8.943417 0.022110 7.960276
v 8.701021 2.022110 7.960276
v 8.513228 2.022110 8.289496
v -8.703285 2.022110 8.289496
v -8.943419 2.022110 7.960276
vt 0.000480 1.000480
vt 0.999520 -0.000480
vt 1.000480 0.999520
vt 0.000480 1.000480
vt 0.999520 -0.000480
vt 1.000480 0.999520
vt -0.000480 0.000480
vt 1.000480 0.999520
vt -0.000480 0.000480
vt 1.000480 0.999520
vt 0.000480 1.000480
vt -0.000480 0.000480
vt 0.000480 1.000480
vt -2.725984 0.000480
vt 3.725984 0.999520
vt -2.719798 1.000480
vt -0.000480 0.000480
vt -0.000480 0.000480
vt 0.999520 -0.000480
vt 0.999520 -0.000480
vt 3.719798 -0.000480
vn 0.0000 -1.0000 0.0000
vn 0.0000 1.0000 0.0000
vn 0.8686 -0.0000 0.4955
vn 0.0000 0.0000 1.0000
vn -0.8079 -0.0000 0.5893
vn 0.0000 0.0000 -1.0000
usemtl Material
s off
f 113/305/85 115/306/85 116/307/85
f 117/308/86 119/309/86 118/310/86
f 117/311/87 114/312/87 113/305/87
f 118/313/88 115/314/88 114/315/88
f 119/316/89 116/307/89 115/317/89
f 113/318/90 120/319/90 117/320/90
f 113/305/85 114/321/85 115/306/85
f 117/308/86 120/322/86 119/309/86
f 117/311/87 118/323/87 114/312/87
f 118/313/88 119/309/88 115/314/88
f 119/316/89 120/324/89 116/307/89
f 113/318/90 116/325/90 120/319/90
o Cube.002
v 8.513234 0.022110 -8.376138
v 8.513234 0.022110 -7.944652
v -8.703283 0.022110 -7.944652
v -8.703279 0.022110 -8.376138
v 8.513238 2.022110 -8.376138
v 8.513228 2.022110 -7.944652
v -8.703285 2.022110 -7.944652
v -8.703281 2.022110 -8.376138
vt -0.000369 0.000370
vt 1.000369 0.999630
vt 0.000370 1.000369
vt -0.000369 0.000370
vt 1.000369 0.999630
vt 0.000370 1.000369
vt -0.000369 0.000370
vt 1.000369 0.999630
vt -2.512185 0.000370
vt 3.512185 0.999630
vt -2.507737 1.000369
vt 0.000370 1.000369
vt 0.999630 -0.000369
vt -0.000369 0.000370
vt 1.000369 0.999630
vt 0.999630 -0.000369
vt 0.999630 -0.000369
vt 0.999630 -0.000369
vt 3.507737 -0.000369
vt -0.000369 0.000370
vt 0.999630 -0.000369
vn 0.0000 -1.0000 0.0000
vn 0.0000 1.0000 -0.0000
vn 1.0000 -0.0000 0.0000
vn 0.0000 0.0000 1.0000
vn -1.0000 -0.0000 -0.0000
vn 0.0000 0.0000 -1.0000
usemtl Material
s off
f 122/326/91 124/327/91 121/328/91
f 128/329/92 126/330/92 125/331/92
f 125/332/93 122/333/93 121/328/93
f 126/334/94 123/335/94 122/336/94
f 123/337/95 128/338/95 124/327/95
f 121/339/96 128/340/96 125/331/96
f 122/326/91 123/341/91 124/327/91
f 128/329/92 127/342/92 126/330/92
f 125/332/93 126/343/93 122/333/93
f 126/334/94 127/344/94 123/335/94
f 123/337/95 127/345/95 128/338/95
f 121/339/96 124/346/96 128/340/96
o Cube.001
v -8.028123 0.022110 -8.022568
v -8.028123 0.022110 8.022569
v -8.218394 0.022110 8.022567
v -8.218394 0.022110 -8.022572
v -8.028123 2.022110 -8.022564
v -8.028123 2.022110 8.022573
v -8.218394 2.022110 8.022566
v -8.218394 2.022110 -8.022569
vt -0.000015 0.000015
vt 1.000015 0.999985
vt 0.000015 1.000015
vt -0.000015 0.000015
vt 1.000015 0.999985
vt 0.000015 1.000015
vt -2.445916 0.000015
vt 3.445916 0.999985
vt -2.445744 1.000015
vt -0.000015 0.000015
vt 1.000015 0.999985
vt 0.000015 1.000015
vt 0.000015 1.000015
vt 0.999985 -0.000015
vt -0.000015 0.000015
vt 1.000015 0.999985
vt 0.999985 -0.000015
vt 0.999985 -0.000015
vt 3.445745 -0.000015
vt -0.000015 0.000015
vt 0.999985 -0.000015
vn 0.0000 -1.0000 0.0000
vn 0.0000 1.0000 0.0000
vn 1.0000 0.0000 0.0000
vn -0.0000 -0.0000 1.0000
vn -1.0000 0.0000 0.0000
vn 0.0000 0.0000 -1.0000
usemtl Material
s off
f 130/347/97 132/348/97 129/349/97
f 136/350/98 134/351/98 133/352/98
f 133/353/99 130/354/99 129/355/99
f 134/356/100 131/357/100 130/358/100
f 131/359/101 136/360/101 132/348/101
f 129/361/102 136/362/102 133/352/102
f 130/347/97 131/363/97 132/348/97
f 136/350/98 135/364/98 134/351/98
f 133/353/99 134/365/99 130/354/99
f 134/356/100 135/364/100 131/357/100
f 131/359/101 135/366/101 136/360/101
f 129/361/102 132/367/102 136/362/102
o Plane
v -8.032909 0.314785 8.032909
v 8.032909 0.314785 8.032909
v -8.032909 0.314785 -8.032909
v 8.032909 0.314785 -8.032909
vt 5.539041 -4.539041
vt -4.539041 5.539041
vt -4.539040 -4.539041
vt 5.539041 5.539041
vn 0.0000 1.0000 0.0000
usemtl None_Grass_001_COLOR.jpg
s off
f 138/368/103 139/369/103 137/370/103
f 138/368/103 140/371/103 139/369/103
o Cube
v 8.231453 0.022110 -8.022568
v 8.231453 0.022110 8.022569
v 8.030788 0.022110 8.022567
v 8.030788 0.022110 -8.022572
v 8.231453 2.022110 -8.022564
v 8.231453 2.022110 8.022573
v 8.030788 2.022110 8.022566
v 8.030788 2.022110 -8.022569
vt -0.000345 0.000345
vt 1.000345 0.999655
vt 0.000345 1.000345
vt -0.000345 0.000345
vt 1.000345 0.999655
vt 0.000345 1.000345
vt -1.417249 0.000345
vt 2.417249 0.999655
vt -1.414607 1.000345
vt -0.000345 0.000345
vt 1.000345 0.999655
vt 0.000345 1.000345
vt -2.619571 1.000345
vt 3.619571 -0.000345
vt 3.623876 0.999655
vt -0.000345 0.000345
vt 1.000345 0.999655
vt 0.999655 -0.000345
vt 0.999655 -0.000345
vt 2.414607 -0.000345
vt -2.623876 0.000345
vt 0.999655 -0.000345
vn 0.0000 -1.0000 0.0000
vn 0.0000 1.0000 0.0000
vn 1.0000 0.0000 0.0000
vn -0.0000 -0.0000 1.0000
vn -1.0000 -0.0000 0.0000
vn 0.0000 0.0000 -1.0000
usemtl Material
s off
f 142/372/104 144/373/104 141/374/104
f 148/375/105 146/376/105 145/377/105
f 145/378/106 142/379/106 141/380/106
f 146/381/107 143/382/107 142/383/107
f 143/384/108 148/385/108 144/386/108
f 141/387/109 148/388/109 145/377/109
f 142/372/104 143/389/104 144/373/104
f 148/375/105 147/390/105 146/376/105
f 145/378/106 146/391/106 142/379/106
f 146/381/107 147/390/107 143/382/107
f 143/384/108 147/392/108 148/385/108
f 141/387/109 144/393/109 148/388/109
