# Blender v2.79 (sub 0) OBJ File: 'sunsetBox.blend'
# www.blender.org
mtllib sunsetBox.mtl
o Cube
v 1.000000 -1.000000 -1.000000
v 1.000000 -1.000000 1.000000
v -1.000000 -1.000000 1.000000
v -1.000000 -1.000000 -1.000000
v 1.000000 1.000000 -0.999999
v 0.999999 1.000000 1.000001
v -1.000000 1.000000 1.000000
v -1.000000 1.000000 -1.000000
vt 0.999609 0.333854
vt 0.750391 0.000521
vt 0.999609 0.000521
vt 0.750469 0.999479
vt 0.999609 0.666146
vt 0.999609 0.999479
vt 0.250391 0.666146
vt 0.000391 0.333854
vt 0.250391 0.333854
vt 0.750391 0.333854
vt 0.500000 0.666094
vt 0.500000 0.333854
vt 0.750469 0.666146
vt 0.000391 0.666146
vt 0.750391 0.666146
vn 0.0000 -1.0000 0.0000
vn 0.0000 1.0000 0.0000
vn 1.0000 -0.0000 0.0000
vn 0.0000 -0.0000 1.0000
vn -1.0000 -0.0000 -0.0000
vn 0.0000 0.0000 -1.0000
usemtl Material
s off
f 2/1/1 4/2/1 1/3/1
f 8/4/2 6/5/2 5/6/2
f 5/7/3 2/8/3 1/9/3
f 6/5/4 3/10/4 2/1/4
f 3/10/5 8/11/5 4/12/5
f 1/9/6 8/11/6 5/7/6
f 2/1/1 3/10/1 4/2/1
f 8/4/2 7/13/2 6/5/2
f 5/7/3 6/14/3 2/8/3
f 6/5/4 7/15/4 3/10/4
f 3/10/5 7/15/5 8/11/5
f 1/9/6 4/12/6 8/11/6
