# Blender v2.79 (sub 0) OBJ File: 'CylinderBumper.blend'
# www.blender.org
mtllib CylinderBumper.mtl
o Circle_Circle.001
v 0.000882 1.225366 0.011626
v 0.000882 0.637454 -1.765636
v -0.345845 0.637454 -1.731486
v -0.679247 0.637454 -1.630350
v -0.986512 0.637454 -1.466113
v -1.255832 0.637454 -1.245088
v -1.476857 0.637454 -0.975768
v -1.641094 0.637454 -0.668503
v -1.742230 0.637454 -0.335101
v -1.776380 0.637454 0.011625
v -1.742230 0.637454 0.358352
v -1.641094 0.637454 0.691754
v -1.476857 0.637454 0.999019
v -1.255832 0.637454 1.268339
v -0.986512 0.637454 1.489365
v -0.679246 0.637454 1.653601
v -0.345844 0.637454 1.754737
v 0.000882 0.637454 1.788887
v 0.347609 0.637454 1.754737
v 0.681011 0.637454 1.653601
v 0.988276 0.637454 1.489364
v 1.257596 0.637454 1.268338
v 1.478621 0.637454 0.999018
v 1.642858 0.637454 0.691753
v 1.743994 0.637454 0.358351
v 1.778143 0.637454 0.011624
v 1.743993 0.637454 -0.335103
v 1.642856 0.637454 -0.668505
v 1.478619 0.637454 -0.975770
v 1.257594 0.637454 -1.245089
v 0.988273 0.637454 -1.466114
v 0.681008 0.637454 -1.630351
v 0.347605 0.637454 -1.731487
vt 0.295141 0.500000
vt 0.107049 0.888316
vt 0.065950 0.818682
vt 0.033659 0.736802
vt 0.011416 0.645822
vt 0.000077 0.549238
vt 0.000077 0.450762
vt 0.011416 0.354178
vt 0.033659 0.263197
vt 0.065950 0.181317
vt 0.107049 0.111684
vt 0.155376 0.056974
vt 0.209074 0.019288
vt 0.266080 0.000077
vt 0.324202 0.000077
vt 0.381208 0.019289
vt 0.434906 0.056974
vt 0.483234 0.111684
vt 0.524332 0.181317
vt 0.556624 0.263197
vt 0.578866 0.354178
vt 0.590205 0.450762
vt 0.590205 0.549238
vt 0.578866 0.645822
vt 0.556624 0.736802
vt 0.524332 0.818682
vt 0.483234 0.888316
vt 0.434906 0.943026
vt 0.381208 0.980712
vt 0.324202 0.999923
vt 0.266080 0.999923
vt 0.209074 0.980711
vt 0.155376 0.943026
vn 0.0000 1.0000 0.0000
vn 0.0000 0.9494 -0.3140
vn -0.0613 0.9494 -0.3080
vn -0.1202 0.9494 -0.2901
vn -0.1745 0.9494 -0.2611
vn -0.2221 0.9494 -0.2221
vn -0.2611 0.9494 -0.1745
vn -0.2901 0.9494 -0.1202
vn -0.3080 0.9494 -0.0613
vn -0.3140 0.9494 0.0000
vn -0.3080 0.9494 0.0613
vn -0.2901 0.9494 0.1202
vn -0.2611 0.9494 0.1745
vn -0.2221 0.9494 0.2221
vn -0.1745 0.9494 0.2611
vn -0.1202 0.9494 0.2901
vn -0.0613 0.9494 0.3080
vn 0.0000 0.9494 0.3140
vn 0.0613 0.9494 0.3080
vn 0.1202 0.9494 0.2901
vn 0.1745 0.9494 0.2611
vn 0.2221 0.9494 0.2221
vn 0.2611 0.9494 0.1745
vn 0.2901 0.9494 0.1202
vn 0.3080 0.9494 0.0613
vn 0.3140 0.9494 0.0000
vn 0.3080 0.9494 -0.0613
vn 0.2901 0.9494 -0.1202
vn 0.2611 0.9494 -0.1745
vn 0.2221 0.9494 -0.2221
vn 0.1745 0.9494 -0.2611
vn 0.1202 0.9494 -0.2901
vn 0.0613 0.9494 -0.3080
usemtl None
s 1
f 1/1/1 2/2/2 3/3/3
f 1/1/1 3/3/3 4/4/4
f 1/1/1 4/4/4 5/5/5
f 1/1/1 5/5/5 6/6/6
f 1/1/1 6/6/6 7/7/7
f 1/1/1 7/7/7 8/8/8
f 1/1/1 8/8/8 9/9/9
f 1/1/1 9/9/9 10/10/10
f 1/1/1 10/10/10 11/11/11
f 1/1/1 11/11/11 12/12/12
f 1/1/1 12/12/12 13/13/13
f 1/1/1 13/13/13 14/14/14
f 1/1/1 14/14/14 15/15/15
f 1/1/1 15/15/15 16/16/16
f 1/1/1 16/16/16 17/17/17
f 1/1/1 17/17/17 18/18/18
f 1/1/1 18/18/18 19/19/19
f 1/1/1 19/19/19 20/20/20
f 1/1/1 20/20/20 21/21/21
f 1/1/1 21/21/21 22/22/22
f 1/1/1 22/22/22 23/23/23
f 1/1/1 23/23/23 24/24/24
f 1/1/1 24/24/24 25/25/25
f 1/1/1 25/25/25 26/26/26
f 1/1/1 26/26/26 27/27/27
f 1/1/1 27/27/27 28/28/28
f 1/1/1 28/28/28 29/29/29
f 1/1/1 29/29/29 30/30/30
f 1/1/1 30/30/30 31/31/31
f 1/1/1 31/31/31 32/32/32
f 1/1/1 32/32/32 33/33/33
f 1/1/1 33/33/33 2/2/2
o Cylinder_Cylinder.001
v 0.000000 -1.233186 -0.805106
v 0.000000 1.233186 -0.805106
v 0.078914 -1.233186 -0.801229
v 0.078914 1.233186 -0.801229
v 0.157068 -1.233186 -0.789636
v 0.157068 1.233186 -0.789636
v 0.233710 -1.233186 -0.770438
v 0.233710 1.233186 -0.770438
v 0.308101 -1.233186 -0.743821
v 0.308101 1.233186 -0.743821
v 0.379524 -1.233186 -0.710040
v 0.379524 1.233186 -0.710040
v 0.447293 -1.233186 -0.669421
v 0.447293 1.233186 -0.669421
v 0.510754 -1.233186 -0.622355
v 0.510754 1.233186 -0.622355
v 0.569296 -1.233186 -0.569296
v 0.569296 1.233186 -0.569296
v 0.622355 -1.233186 -0.510754
v 0.622355 1.233186 -0.510754
v 0.669421 -1.233186 -0.447293
v 0.669421 1.233186 -0.447293
v 0.710040 -1.233186 -0.379524
v 0.710040 1.233186 -0.379524
v 0.743821 -1.233186 -0.308101
v 0.743821 1.233186 -0.308101
v 0.770438 -1.233186 -0.233710
v 0.770438 1.233186 -0.233710
v 0.789636 -1.233186 -0.157068
v 0.789636 1.233186 -0.157068
v 0.801229 -1.233186 -0.078914
v 0.801229 1.233186 -0.078914
v 0.805106 -1.233186 0.000000
v 0.805106 1.233186 0.000000
v 0.801229 -1.233186 0.078914
v 0.801229 1.233186 0.078914
v 0.789636 -1.233186 0.157069
v 0.789636 1.233186 0.157069
v 0.770438 -1.233186 0.233710
v 0.770438 1.233186 0.233710
v 0.743821 -1.233186 0.308101
v 0.743821 1.233186 0.308101
v 0.710040 -1.233186 0.379525
v 0.710040 1.233186 0.379525
v 0.669421 -1.233186 0.447293
v 0.669421 1.233186 0.447293
v 0.622355 -1.233186 0.510754
v 0.622355 1.233186 0.510754
v 0.569296 -1.233186 0.569296
v 0.569296 1.233186 0.569296
v 0.510753 -1.233186 0.622356
v 0.510753 1.233186 0.622356
v 0.447293 -1.233186 0.669421
v 0.447293 1.233186 0.669421
v 0.379524 -1.233186 0.710040
v 0.379524 1.233186 0.710040
v 0.308100 -1.233186 0.743821
v 0.308100 1.233186 0.743821
v 0.233709 -1.233186 0.770438
v 0.233709 1.233186 0.770438
v 0.157068 -1.233186 0.789636
v 0.157068 1.233186 0.789636
v 0.078914 -1.233186 0.801229
v 0.078914 1.233186 0.801229
v -0.000001 -1.233186 0.805106
v -0.000001 1.233186 0.805106
v -0.078915 -1.233186 0.801229
v -0.078915 1.233186 0.801229
v -0.157069 -1.233186 0.789636
v -0.157069 1.233186 0.789636
v -0.233711 -1.233186 0.770438
v -0.233711 1.233186 0.770438
v -0.308101 -1.233186 0.743821
v -0.308101 1.233186 0.743821
v -0.379525 -1.233186 0.710040
v -0.379525 1.233186 0.710040
v -0.447294 -1.233186 0.669421
v -0.447294 1.233186 0.669421
v -0.510754 -1.233186 0.622355
v -0.510754 1.233186 0.622355
v -0.569297 -1.233186 0.569295
v -0.569297 1.233186 0.569295
v -0.622356 -1.233186 0.510753
v -0.622356 1.233186 0.510753
v -0.669421 -1.233186 0.447292
v -0.669421 1.233186 0.447292
v -0.710040 -1.233186 0.379524
v -0.710040 1.233186 0.379524
v -0.743821 -1.233186 0.308100
v -0.743821 1.233186 0.308100
v -0.770438 -1.233186 0.233710
v -0.770438 1.233186 0.233710
v -0.789636 -1.233186 0.157068
v -0.789636 1.233186 0.157068
v -0.801229 -1.233186 0.078914
v -0.801229 1.233186 0.078914
v -0.805106 -1.233186 0.000000
v -0.805106 1.233186 0.000000
v -0.801229 -1.233186 -0.078914
v -0.801229 1.233186 -0.078914
v -0.789636 -1.233186 -0.157068
v -0.789636 1.233186 -0.157068
v -0.770439 -1.233186 -0.233709
v -0.770439 1.233186 -0.233709
v -0.743821 -1.233186 -0.308100
v -0.743821 1.233186 -0.308100
v -0.710041 -1.233186 -0.379523
v -0.710041 1.233186 -0.379523
v -0.669422 -1.233186 -0.447292
v -0.669422 1.233186 -0.447292
v -0.622356 -1.233186 -0.510753
v -0.622356 1.233186 -0.510753
v -0.569297 -1.233186 -0.569295
v -0.569297 1.233186 -0.569295
v -0.510755 -1.233186 -0.622354
v -0.510755 1.233186 -0.622354
v -0.447295 -1.233186 -0.669420
v -0.447295 1.233186 -0.669420
v -0.379526 -1.233186 -0.710039
v -0.379526 1.233186 -0.710039
v -0.308103 -1.233186 -0.743820
v -0.308103 1.233186 -0.743820
v -0.233712 -1.233186 -0.770438
v -0.233712 1.233186 -0.770438
v -0.157071 -1.233186 -0.789636
v -0.157071 1.233186 -0.789636
v -0.078917 -1.233186 -0.801229
v -0.078917 1.233186 -0.801229
vt 0.271814 0.818606
vt 0.152239 0.082806
vt 0.160405 0.073760
vt 0.265068 0.827652
vt 0.144450 0.092283
vt 0.258305 0.837129
vt 0.136946 0.102099
vt 0.251515 0.846946
vt 0.129661 0.112161
vt 0.244679 0.857008
vt 0.122543 0.122372
vt 0.237778 0.867218
vt 0.115549 0.132633
vt 0.230786 0.877479
vt 0.108646 0.142845
vt 0.223669 0.887691
vt 0.101810 0.152910
vt 0.216387 0.897756
vt 0.095019 0.162730
vt 0.208887 0.907577
vt 0.088257 0.172213
vt 0.201102 0.917059
vt 0.081510 0.181265
vt 0.192943 0.926112
vt 0.074769 0.189801
vt 0.184292 0.934647
vt 0.068026 0.197737
vt 0.174990 0.942583
vt 0.061276 0.204998
vt 0.164819 0.949844
vt 0.054515 0.211513
vt 0.153472 0.956359
vt 0.047742 0.217219
vt 0.140519 0.962066
vt 0.040956 0.222063
vt 0.125356 0.966909
vt 0.034158 0.225996
vt 0.107171 0.970842
vt 0.027349 0.228982
vt 0.085007 0.973828
vt 0.020533 0.230990
vt 0.058139 0.975837
vt 0.013711 0.232003
vt 0.692438 0.976850
vt 0.672342 0.232011
vt 0.679165 0.232003
vt 0.659445 0.976857
vt 0.665520 0.231012
vt 0.628240 0.975859
vt 0.658703 0.229018
vt 0.601302 0.973864
vt 0.651894 0.226046
vt 0.579074 0.970892
vt 0.645096 0.222126
vt 0.560838 0.966973
vt 0.638309 0.217296
vt 0.545637 0.962142
vt 0.631536 0.211602
vt 0.532657 0.956448
vt 0.624775 0.205098
vt 0.521290 0.949944
vt 0.618025 0.197848
vt 0.511104 0.942694
vt 0.611282 0.189921
vt 0.501791 0.934767
vt 0.604541 0.181394
vt 0.493132 0.926240
vt 0.597795 0.172348
vt 0.484967 0.917194
vt 0.591033 0.162871
vt 0.477177 0.907717
vt 0.584242 0.153054
vt 0.469673 0.897900
vt 0.577407 0.142992
vt 0.462389 0.887838
vt 0.570506 0.132782
vt 0.455270 0.877628
vt 0.563513 0.122521
vt 0.448276 0.867367
vt 0.556396 0.112309
vt 0.441374 0.857155
vt 0.549114 0.102244
vt 0.434537 0.847090
vt 0.541615 0.092423
vt 0.427746 0.837269
vt 0.533830 0.082941
vt 0.420984 0.827787
vt 0.525670 0.073888
vt 0.414237 0.818734
vt 0.517019 0.065353
vt 0.407496 0.810199
vt 0.507718 0.057417
vt 0.400753 0.802263
vt 0.497546 0.050156
vt 0.394003 0.795002
vt 0.486200 0.043641
vt 0.387243 0.788487
vt 0.473246 0.037934
vt 0.380470 0.782781
vt 0.458083 0.033091
vt 0.373684 0.777937
vt 0.439898 0.029158
vt 0.366885 0.774004
vt 0.417735 0.026172
vt 0.360077 0.771019
vt 0.390867 0.024163
vt 0.353260 0.769010
vt 0.359711 0.023150
vt 0.346438 0.767997
vt 0.326718 0.023143
vt 0.339615 0.767989
vt 0.295513 0.024141
vt 0.332793 0.768988
vt 0.268575 0.026136
vt 0.325976 0.770982
vt 0.246347 0.029107
vt 0.319167 0.773954
vt 0.228111 0.033027
vt 0.312369 0.777873
vt 0.212910 0.037858
vt 0.305582 0.782704
vt 0.199930 0.043552
vt 0.298809 0.788398
vt 0.188563 0.050056
vt 0.292048 0.794902
vt 0.178377 0.057306
vt 0.772625 0.970842
vt 0.923760 0.837129
vt 0.285298 0.802152
vt 0.169064 0.065233
vt 0.278555 0.810079
vt 0.834519 0.065233
vt 0.719970 0.211513
vt 0.026984 0.976850
vt 0.930522 0.827652
vt 0.937269 0.818606
vt 0.944010 0.810079
vt 0.950753 0.802152
vt 0.957503 0.794902
vt 0.964264 0.788398
vt 0.971037 0.782704
vt 0.977823 0.777873
vt 0.984621 0.773954
vt 0.991430 0.770982
vt 0.723594 0.975837
vt 0.750462 0.973828
vt 0.790810 0.966909
vt 0.805974 0.962066
vt 0.818927 0.956359
vt 0.830274 0.949844
vt 0.840445 0.942583
vt 0.849747 0.934647
vt 0.858398 0.926112
vt 0.866557 0.917059
vt 0.874342 0.907577
vt 0.896240 0.877479
vt 0.881842 0.897756
vt 0.889124 0.887691
vt 0.903233 0.867218
vt 0.910134 0.857008
vt 0.916970 0.846946
vt 0.825859 0.073760
vt 0.817694 0.082806
vt 0.809904 0.092283
vt 0.802401 0.102099
vt 0.795116 0.112161
vt 0.787997 0.122372
vt 0.781003 0.132633
vt 0.774101 0.142845
vt 0.767265 0.152910
vt 0.760473 0.162730
vt 0.753711 0.172213
vt 0.746964 0.181265
vt 0.740223 0.189801
vt 0.733481 0.197737
vt 0.726731 0.204998
vt 0.713197 0.217219
vt 0.692804 0.228982
vt 0.706411 0.222063
vt 0.699613 0.225996
vt 0.685987 0.230990
vt 0.992173 0.023143
vt 0.960968 0.024141
vt 0.934030 0.026136
vt 0.911802 0.029107
vt 0.893566 0.033027
vt 0.878365 0.037858
vt 0.865384 0.043552
vt 0.854018 0.050056
vt 0.843831 0.057306
vn 0.0000 0.6962 -0.7178
vn 0.0703 -0.6962 -0.7143
vn 0.0000 -0.6962 -0.7178
vn 0.0703 0.6962 -0.7143
vn 0.1400 -0.6962 -0.7040
vn 0.1400 0.6962 -0.7040
vn 0.2083 -0.6962 -0.6869
vn 0.2083 0.6962 -0.6869
vn 0.2747 -0.6962 -0.6632
vn 0.2747 0.6962 -0.6632
vn 0.3384 -0.6962 -0.6330
vn 0.3384 0.6962 -0.6330
vn 0.3988 -0.6962 -0.5968
vn 0.3988 0.6962 -0.5968
vn 0.4554 -0.6962 -0.5549
vn 0.4554 0.6962 -0.5549
vn 0.5076 -0.6962 -0.5076
vn 0.5076 0.6962 -0.5076
vn 0.5549 -0.6962 -0.4554
vn 0.5549 0.6962 -0.4554
vn 0.5968 -0.6962 -0.3988
vn 0.5968 0.6962 -0.3988
vn 0.6330 -0.6962 -0.3384
vn 0.6330 0.6962 -0.3384
vn 0.6632 -0.6962 -0.2747
vn 0.6632 0.6962 -0.2747
vn 0.6869 -0.6962 -0.2083
vn 0.6869 0.6962 -0.2083
vn 0.7040 -0.6962 -0.1400
vn 0.7040 0.6962 -0.1400
vn 0.7143 -0.6962 -0.0703
vn 0.7143 0.6962 -0.0703
vn 0.7178 -0.6962 0.0000
vn 0.7178 0.6962 0.0000
vn 0.7143 -0.6962 0.0703
vn 0.7143 0.6962 0.0703
vn 0.7040 -0.6962 0.1400
vn 0.7040 0.6962 0.1400
vn 0.6869 -0.6962 0.2083
vn 0.6869 0.6962 0.2083
vn 0.6632 -0.6962 0.2747
vn 0.6632 0.6962 0.2747
vn 0.6330 -0.6962 0.3384
vn 0.6330 0.6962 0.3384
vn 0.5968 -0.6962 0.3988
vn 0.5968 0.6962 0.3988
vn 0.5549 -0.6962 0.4554
vn 0.5549 0.6962 0.4554
vn 0.5076 -0.6962 0.5076
vn 0.5076 0.6962 0.5076
vn 0.4554 -0.6962 0.5549
vn 0.4554 0.6962 0.5549
vn 0.3988 -0.6962 0.5969
vn 0.3988 0.6962 0.5968
vn 0.3384 -0.6962 0.6330
vn 0.3384 0.6962 0.6330
vn 0.2747 -0.6962 0.6632
vn 0.2747 0.6962 0.6632
vn 0.2083 -0.6962 0.6869
vn 0.2083 0.6962 0.6869
vn 0.1400 -0.6962 0.7040
vn 0.1400 0.6962 0.7040
vn 0.0703 -0.6962 0.7143
vn 0.0703 0.6962 0.7143
vn 0.0000 -0.6962 0.7178
vn 0.0000 0.6962 0.7178
vn -0.0703 -0.6962 0.7143
vn -0.0703 0.6962 0.7143
vn -0.1400 -0.6962 0.7040
vn -0.1400 0.6962 0.7040
vn -0.2083 -0.6962 0.6869
vn -0.2083 0.6962 0.6869
vn -0.2747 -0.6962 0.6632
vn -0.2747 0.6962 0.6632
vn -0.3384 -0.6962 0.6330
vn -0.3384 0.6962 0.6330
vn -0.3988 -0.6962 0.5968
vn -0.3988 0.6962 0.5968
vn -0.4554 -0.6962 0.5549
vn -0.4554 0.6962 0.5549
vn -0.5076 -0.6962 0.5076
vn -0.5076 0.6962 0.5076
vn -0.5549 -0.6962 0.4554
vn -0.5549 0.6962 0.4554
vn -0.5968 -0.6962 0.3988
vn -0.5968 0.6962 0.3988
vn -0.6330 -0.6962 0.3384
vn -0.6330 0.6962 0.3384
vn -0.6632 -0.6962 0.2747
vn -0.6632 0.6962 0.2747
vn -0.6869 -0.6962 0.2083
vn -0.6869 0.6962 0.2083
vn -0.7040 -0.6962 0.1400
vn -0.7040 0.6962 0.1400
vn -0.7143 -0.6962 0.0703
vn -0.7143 0.6962 0.0703
vn -0.7178 -0.6962 0.0000
vn -0.7178 0.6962 0.0000
vn -0.7143 -0.6962 -0.0703
vn -0.7143 0.6962 -0.0703
vn -0.7040 -0.6962 -0.1400
vn -0.7040 0.6962 -0.1400
vn -0.6869 -0.6962 -0.2083
vn -0.6869 0.6962 -0.2083
vn -0.6632 -0.6962 -0.2747
vn -0.6632 0.6962 -0.2747
vn -0.6330 -0.6962 -0.3384
vn -0.6330 0.6962 -0.3384
vn -0.5968 -0.6962 -0.3988
vn -0.5968 0.6962 -0.3988
vn -0.5549 -0.6962 -0.4554
vn -0.5549 0.6962 -0.4554
vn -0.5076 -0.6962 -0.5076
vn -0.5076 0.6962 -0.5076
vn -0.4554 -0.6962 -0.5549
vn -0.4554 0.6962 -0.5549
vn -0.3988 -0.6962 -0.5968
vn -0.3988 0.6962 -0.5968
vn -0.3384 -0.6962 -0.6330
vn -0.3384 0.6962 -0.6330
vn -0.2747 -0.6962 -0.6632
vn -0.2747 0.6962 -0.6632
vn -0.2083 -0.6962 -0.6869
vn -0.2083 0.6962 -0.6869
vn -0.1400 -0.6962 -0.7040
vn -0.1400 0.6962 -0.7040
vn -0.0703 -0.6962 -0.7143
vn -0.0703 0.6962 -0.7143
usemtl None_metalBall.jpg
s 1
f 35/34/34 36/35/35 34/36/36
f 37/37/37 38/38/38 36/35/35
f 39/39/39 40/40/40 38/38/38
f 41/41/41 42/42/42 40/40/40
f 43/43/43 44/44/44 42/42/42
f 45/45/45 46/46/46 44/44/44
f 47/47/47 48/48/48 46/46/46
f 49/49/49 50/50/50 48/48/48
f 51/51/51 52/52/52 50/50/50
f 53/53/53 54/54/54 52/52/52
f 55/55/55 56/56/56 54/54/54
f 57/57/57 58/58/58 56/56/56
f 59/59/59 60/60/60 58/58/58
f 61/61/61 62/62/62 60/60/60
f 63/63/63 64/64/64 62/62/62
f 65/65/65 66/66/66 64/64/64
f 67/67/67 68/68/68 66/66/66
f 69/69/69 70/70/70 68/68/68
f 71/71/71 72/72/72 70/70/70
f 73/73/73 74/74/74 72/72/72
f 75/75/75 76/76/76 74/74/74
f 77/77/77 78/78/78 76/79/76
f 79/80/79 80/81/80 78/78/78
f 81/82/81 82/83/82 80/81/80
f 83/84/83 84/85/84 82/83/82
f 85/86/85 86/87/86 84/85/84
f 87/88/87 88/89/88 86/87/86
f 89/90/89 90/91/90 88/89/88
f 91/92/91 92/93/92 90/91/90
f 93/94/93 94/95/94 92/93/92
f 95/96/95 96/97/96 94/95/94
f 97/98/97 98/99/98 96/97/96
f 99/100/99 100/101/100 98/99/98
f 101/102/101 102/103/102 100/101/100
f 103/104/103 104/105/104 102/103/102
f 105/106/105 106/107/106 104/105/104
f 107/108/107 108/109/108 106/107/106
f 109/110/109 110/111/110 108/109/108
f 111/112/111 112/113/112 110/111/110
f 113/114/113 114/115/114 112/113/112
f 115/116/115 116/117/116 114/115/114
f 117/118/117 118/119/118 116/117/116
f 119/120/119 120/121/120 118/119/118
f 121/122/121 122/123/122 120/121/120
f 123/124/123 124/125/124 122/123/122
f 125/126/125 126/127/126 124/125/124
f 127/128/127 128/129/128 126/127/126
f 129/130/129 130/131/130 128/129/128
f 131/132/131 132/133/132 130/131/130
f 133/134/133 134/135/134 132/133/132
f 135/136/135 136/137/136 134/135/134
f 137/138/137 138/139/138 136/137/136
f 139/140/139 140/141/140 138/139/138
f 141/142/141 142/143/142 140/141/140
f 143/144/143 144/145/144 142/143/142
f 145/146/145 146/147/146 144/145/144
f 147/148/147 148/149/148 146/147/146
f 149/150/149 150/151/150 148/149/148
f 151/152/151 152/153/152 150/151/150
f 153/154/153 154/155/154 152/153/152
f 155/156/155 156/157/156 154/155/154
f 157/158/157 158/159/158 156/157/156
f 103/104/103 71/160/71 39/161/39
f 159/162/159 160/163/160 158/159/158
f 161/164/161 34/36/36 160/163/160
f 160/165/160 64/166/64 96/97/96
f 35/34/34 37/37/37 36/35/35
f 37/37/37 39/39/39 38/38/38
f 39/39/39 41/41/41 40/40/40
f 41/41/41 43/43/43 42/42/42
f 43/43/43 45/45/45 44/44/44
f 45/45/45 47/47/47 46/46/46
f 47/47/47 49/49/49 48/48/48
f 49/49/49 51/51/51 50/50/50
f 51/51/51 53/53/53 52/52/52
f 53/53/53 55/55/55 54/54/54
f 55/55/55 57/57/57 56/56/56
f 57/57/57 59/59/59 58/58/58
f 59/59/59 61/61/61 60/60/60
f 61/61/61 63/63/63 62/62/62
f 63/63/63 65/65/65 64/64/64
f 65/65/65 67/67/67 66/66/66
f 67/67/67 69/69/69 68/68/68
f 69/69/69 71/71/71 70/70/70
f 71/71/71 73/73/73 72/72/72
f 73/73/73 75/75/75 74/74/74
f 75/75/75 77/167/77 76/76/76
f 77/77/77 79/80/79 78/78/78
f 79/80/79 81/82/81 80/81/80
f 81/82/81 83/84/83 82/83/82
f 83/84/83 85/86/85 84/85/84
f 85/86/85 87/88/87 86/87/86
f 87/88/87 89/90/89 88/89/88
f 89/90/89 91/92/91 90/91/90
f 91/92/91 93/94/93 92/93/92
f 93/94/93 95/96/95 94/95/94
f 95/96/95 97/98/97 96/97/96
f 97/98/97 99/100/99 98/99/98
f 99/100/99 101/102/101 100/101/100
f 101/102/101 103/104/103 102/103/102
f 103/104/103 105/106/105 104/105/104
f 105/106/105 107/108/107 106/107/106
f 107/108/107 109/110/109 108/109/108
f 109/110/109 111/112/111 110/111/110
f 111/112/111 113/114/113 112/113/112
f 113/114/113 115/116/115 114/115/114
f 115/116/115 117/118/117 116/117/116
f 117/118/117 119/120/119 118/119/118
f 119/120/119 121/122/121 120/121/120
f 121/122/121 123/124/123 122/123/122
f 123/124/123 125/126/125 124/125/124
f 125/126/125 127/128/127 126/127/126
f 127/128/127 129/130/129 128/129/128
f 129/130/129 131/132/131 130/131/130
f 131/132/131 133/134/133 132/133/132
f 133/134/133 135/136/135 134/135/134
f 135/136/135 137/138/137 136/137/136
f 137/138/137 139/140/139 138/139/138
f 139/140/139 141/142/141 140/141/140
f 141/142/141 143/144/143 142/143/142
f 143/144/143 145/146/145 144/145/144
f 145/146/145 147/148/147 146/147/146
f 147/148/147 149/150/149 148/149/148
f 149/150/149 151/152/151 150/151/150
f 151/152/151 153/154/153 152/153/152
f 153/154/153 155/156/155 154/155/154
f 155/156/155 157/158/157 156/157/156
f 157/158/157 159/162/159 158/159/158
f 39/161/39 37/168/37 35/169/34
f 35/169/34 161/170/161 39/161/39
f 161/170/161 159/171/159 39/161/39
f 159/171/159 157/172/157 155/173/155
f 155/173/155 153/174/153 151/175/151
f 151/175/151 149/176/149 143/144/143
f 149/176/149 147/177/147 143/144/143
f 147/177/147 145/146/145 143/144/143
f 143/144/143 141/142/141 135/136/135
f 141/142/141 139/140/139 135/136/135
f 139/140/139 137/138/137 135/136/135
f 135/136/135 133/134/133 127/128/127
f 133/134/133 131/132/131 127/128/127
f 131/132/131 129/130/129 127/128/127
f 127/128/127 125/126/125 119/120/119
f 125/126/125 123/124/123 119/120/119
f 123/124/123 121/122/121 119/120/119
f 119/120/119 117/118/117 111/112/111
f 117/118/117 115/116/115 111/112/111
f 115/116/115 113/114/113 111/112/111
f 111/112/111 109/110/109 107/108/107
f 107/108/107 105/106/105 111/112/111
f 105/106/105 103/104/103 111/112/111
f 103/104/103 101/102/101 99/100/99
f 99/100/99 97/98/97 103/104/103
f 97/98/97 95/96/95 103/104/103
f 95/96/95 93/94/93 91/92/91
f 91/92/91 89/90/89 95/96/95
f 89/90/89 87/88/87 95/96/95
f 87/88/87 85/86/85 79/80/79
f 85/86/85 83/84/83 79/80/79
f 83/84/83 81/82/81 79/80/79
f 79/80/79 77/77/77 75/178/75
f 75/178/75 73/179/73 71/160/71
f 71/160/71 69/180/69 67/181/67
f 67/181/67 65/182/65 71/160/71
f 65/182/65 63/183/63 71/160/71
f 63/183/63 61/184/61 59/185/59
f 59/185/59 57/186/57 55/187/55
f 55/187/55 53/188/53 47/189/47
f 53/188/53 51/190/51 47/189/47
f 51/190/51 49/191/49 47/189/47
f 47/189/47 45/192/45 39/161/39
f 45/192/45 43/193/43 39/161/39
f 43/193/43 41/194/41 39/161/39
f 159/171/159 155/173/155 39/161/39
f 155/173/155 151/175/151 39/161/39
f 79/80/79 75/178/75 71/160/71
f 63/183/63 59/185/59 71/160/71
f 59/185/59 55/187/55 71/160/71
f 151/175/151 143/144/143 135/136/135
f 135/136/135 127/128/127 119/120/119
f 119/120/119 111/112/111 135/136/135
f 111/112/111 103/104/103 135/136/135
f 103/104/103 95/96/95 87/88/87
f 87/88/87 79/80/79 103/104/103
f 79/80/79 71/160/71 103/104/103
f 55/187/55 47/189/47 71/160/71
f 47/189/47 39/161/39 71/160/71
f 39/161/39 151/175/151 135/136/135
f 39/161/39 135/136/135 103/104/103
f 159/162/159 161/164/161 160/163/160
f 161/164/161 35/34/34 34/36/36
f 160/165/160 34/195/36 36/196/35
f 36/196/35 38/197/38 160/165/160
f 38/197/38 40/198/40 160/165/160
f 40/198/40 42/199/42 44/200/44
f 44/200/44 46/201/46 48/202/48
f 48/202/48 50/203/50 52/204/52
f 52/204/52 54/205/54 56/206/56
f 56/206/56 58/207/58 64/166/64
f 58/207/58 60/208/60 64/166/64
f 60/208/60 62/209/62 64/166/64
f 64/166/64 66/210/66 72/211/72
f 66/210/66 68/212/68 72/211/72
f 68/212/68 70/213/70 72/211/72
f 72/211/72 74/214/74 80/81/80
f 74/214/74 76/79/76 80/81/80
f 76/79/76 78/78/78 80/81/80
f 80/81/80 82/83/82 84/85/84
f 84/85/84 86/87/86 88/89/88
f 88/89/88 90/91/90 92/93/92
f 92/93/92 94/95/94 96/97/96
f 96/97/96 98/99/98 104/105/104
f 98/99/98 100/101/100 104/105/104
f 100/101/100 102/103/102 104/105/104
f 104/105/104 106/107/106 112/113/112
f 106/107/106 108/109/108 112/113/112
f 108/109/108 110/111/110 112/113/112
f 112/113/112 114/115/114 116/117/116
f 116/117/116 118/119/118 120/121/120
f 120/121/120 122/123/122 124/125/124
f 124/125/124 126/127/126 128/129/128
f 128/129/128 130/131/130 132/133/132
f 132/133/132 134/135/134 136/137/136
f 136/137/136 138/139/138 140/141/140
f 140/141/140 142/215/142 144/216/144
f 144/216/144 146/217/146 148/218/148
f 148/218/148 150/219/150 152/220/152
f 152/220/152 154/221/154 160/165/160
f 154/221/154 156/222/156 160/165/160
f 156/222/156 158/223/158 160/165/160
f 40/198/40 44/200/44 160/165/160
f 44/200/44 48/202/48 160/165/160
f 48/202/48 52/204/52 56/206/56
f 80/81/80 84/85/84 88/89/88
f 88/89/88 92/93/92 96/97/96
f 112/113/112 116/117/116 120/121/120
f 120/121/120 124/125/124 112/113/112
f 124/125/124 128/129/128 112/113/112
f 128/129/128 132/133/132 144/216/144
f 132/133/132 136/137/136 144/216/144
f 136/137/136 140/141/140 144/216/144
f 144/216/144 148/218/148 160/165/160
f 148/218/148 152/220/152 160/165/160
f 48/202/48 56/206/56 64/166/64
f 64/166/64 72/211/72 80/81/80
f 80/81/80 88/89/88 64/166/64
f 88/89/88 96/97/96 64/166/64
f 96/97/96 104/105/104 112/113/112
f 160/165/160 48/202/48 64/166/64
f 96/97/96 112/113/112 128/129/128
f 128/129/128 144/216/144 96/97/96
f 144/216/144 160/165/160 96/97/96
