# Blender v2.79 (sub 0) OBJ File: 'PinballBacksplash.blend'
# www.blender.org
mtllib PinballBacksplash.mtl
o Plane
v 0.773857 -1.063708 1.149454
v 0.758884 -1.043712 -1.226443
v -0.071247 1.156818 1.173469
v -0.086220 1.176814 -1.202429
vt 0.996198 0.000095
vt 0.000095 0.999905
vt 0.000095 0.000095
vt 0.996198 0.999905
vn 0.9346 0.3557 -0.0029
usemtl None
s off
f 2/1/1 3/2/1 1/3/1
f 2/1/1 4/4/1 3/2/1
o Cube
v 0.894891 -1.135694 -1.355373
v 0.894891 -1.135694 1.281053
v 0.294247 -1.417932 1.281053
v 0.294247 -1.417932 -1.355374
v 0.045138 1.377995 -1.355373
v 0.045138 1.377994 1.281054
v -0.826974 0.968196 1.281053
v -0.826974 0.968196 -1.355373
v 0.821195 -0.978859 -1.182086
v 0.821195 -0.978859 1.107767
v 0.118834 1.221159 -1.182086
v 0.118833 1.221159 1.107767
v 0.675470 -1.047334 -1.182086
v 0.675470 -1.047334 1.107767
v -0.298360 1.025124 -1.182086
v -0.298360 1.025124 1.107767
v -0.295911 1.024816 1.113292
v 0.670770 -1.046576 1.113292
v -0.295911 1.024816 -1.172564
v 0.670770 -1.046576 -1.172564
vt -0.003307 0.360448
vt -0.003307 0.360448
vt -0.003307 0.360448
vt -0.003307 0.360448
vt -0.003307 0.360448
vt -0.003307 0.360448
vt 0.000085 0.802607
vt 0.193811 0.052594
vt 0.060187 0.768442
vt -0.003307 0.360448
vt -0.003307 0.360448
vt -0.003307 0.360448
vt -0.003307 0.360448
vt -0.003307 0.360448
vt -0.003307 0.360448
vt -0.003307 0.360448
vt 0.683022 0.939813
vt 0.717187 0.999915
vt 0.999900 0.999900
vt 0.000100 0.000100
vt 0.999900 0.000100
vt -0.003307 0.360448
vt 0.554427 0.618114
vt -0.003307 0.360448
vt 0.148840 0.000085
vt -0.003307 0.360448
vt 0.000100 0.999900
vt 0.366448 0.000085
vt 0.000000 0.000000
vt 0.000000 0.000000
vt 0.000000 0.000000
vt 0.000000 0.000000
vn 0.4253 -0.9051 0.0000
vn -0.4253 0.9051 -0.0000
vn 0.9447 0.3016 0.1288
vn 0.0000 -0.0000 1.0000
vn -0.9051 -0.4253 -0.0000
vn 0.0000 0.0000 -1.0000
vn 0.9413 0.3182 0.1123
vn 0.9051 0.4253 0.0000
vn 0.9413 0.3182 -0.1123
vn 0.9447 0.3016 -0.1288
vn 0.9062 0.4229 0.0000
usemtl Material
s off
f 6/5/2 8/6/2 5/7/2
f 12/8/3 10/9/3 9/10/3
f 10/11/4 14/12/4 16/13/4
f 6/5/5 11/14/5 7/15/5
f 7/15/6 12/8/6 8/6/6
f 5/7/7 12/8/7 9/10/7
f 16/16/2 19/17/2 15/18/2
f 9/10/8 13/19/8 5/7/8
f 5/7/9 14/20/9 6/5/9
f 10/11/9 15/21/9 9/22/9
f 19/23/9 18/24/9 17/25/9
f 13/19/5 19/17/5 17/26/5
f 14/12/7 20/27/7 16/13/7
f 13/19/3 18/28/3 14/20/3
f 6/5/2 7/15/2 8/6/2
f 12/8/3 11/14/3 10/9/3
f 10/11/10 6/29/10 14/12/10
f 6/5/5 10/9/5 11/14/5
f 7/15/6 11/14/6 12/8/6
f 5/7/7 8/6/7 12/8/7
f 16/16/2 20/30/2 19/17/2
f 9/10/11 15/18/11 13/19/11
f 5/7/9 13/19/9 14/20/9
f 10/11/9 16/13/9 15/21/9
f 19/23/9 20/31/9 18/24/9
f 13/19/5 15/18/5 19/17/5
f 14/12/7 18/32/7 20/27/7
f 13/19/3 17/26/3 18/28/3
usemtl Material_NONE
f 22/33/12 23/34/12 21/35/12
f 22/33/12 24/36/12 23/34/12
